<svg width="20" height="15" viewBox="0 0 20 15" fill="none" xmlns="http://www.w3.org/2000/svg">
<g clip-path="url(#clip0_1292_131)">
<g clip-path="url(#clip1_1292_131)">
<rect width="20" height="15" fill="white"/>
<path fill-rule="evenodd" clip-rule="evenodd" d="M0 0H20V15H0V0Z" fill="#E31D1C"/>
<path d="M20 13.75V15H0V13.75H20ZM20 12.5H0V11.25H20V12.5ZM20 10H0V8.75H20V10ZM20 7.5H0V6.25H20V7.5ZM20 5H0V3.75H20V5ZM20 2.5H0V1.25H20V2.5Z" fill="#F7FCFF"/>
<rect width="11.25" height="8.75" fill="#2E42A5"/>
<path d="M9.76343 1.37549H10.4187L9.90405 1.896L10.1033 2.71729L9.46265 2.25537L8.9314 2.62549H9.1687L8.65405 3.146L8.83081 3.87549H9.20386L9.46167 3.20557L9.76343 3.87549H10.4187L9.90405 4.396L10.1033 5.21729L9.46265 4.75537L8.9314 5.12549H9.1687L8.65405 5.646L8.83081 6.37549H9.20386L9.46167 5.70557L9.76343 6.37549H10.4187L9.90405 6.896L10.1033 7.71729L9.46265 7.25537L8.79956 7.71729L9.02319 6.896L8.4353 6.37549H8.72632L8.21265 6.00537L7.6814 6.37549H7.9187L7.40405 6.896L7.60327 7.71729L6.96265 7.25537L6.29956 7.71729L6.52319 6.896L5.9353 6.37549H6.22632L5.71265 6.00537L5.1814 6.37549H5.4187L4.90405 6.896L5.10327 7.71729L4.46265 7.25537L3.79956 7.71729L4.02319 6.896L3.4353 6.37549H3.72632L3.21265 6.00537L2.6814 6.37549H2.9187L2.40405 6.896L2.60327 7.71729L1.96265 7.25537L1.29956 7.71729L1.52319 6.896L0.935303 6.37549H1.70386L1.96167 5.70557L2.26343 6.37549H2.57495L2.77319 5.646L2.1853 5.12549H2.47632L1.96265 4.75537L1.29956 5.21729L1.52319 4.396L0.935303 3.87549H1.70386L1.96167 3.20557L2.26343 3.87549H2.57495L2.77319 3.146L2.1853 2.62549H2.47632L1.96265 2.25537L1.29956 2.71729L1.52319 1.896L0.935303 1.37549H1.70386L1.96167 0.705566L2.26343 1.37549H2.9187L2.40405 1.896L2.58081 2.62549H2.95386L3.21167 1.95557L3.51343 2.62549H3.82495L4.02319 1.896L3.4353 1.37549H4.20386L4.46167 0.705566L4.76343 1.37549H5.4187L4.90405 1.896L5.08081 2.62549H5.45386L5.71167 1.95557L6.01343 2.62549H6.32495L6.52319 1.896L5.9353 1.37549H6.70386L6.96167 0.705566L7.26343 1.37549H7.9187L7.40405 1.896L7.58081 2.62549H7.95386L8.21167 1.95557L8.51343 2.62549H8.82495L9.02319 1.896L8.4353 1.37549H9.20386L9.46167 0.705566L9.76343 1.37549ZM6.4314 5.12549H6.6687L6.15405 5.646L6.33081 6.37549H6.70386L6.96167 5.70557L7.26343 6.37549H7.57495L7.77319 5.646L7.1853 5.12549H7.47632L6.96265 4.75537L6.4314 5.12549ZM3.9314 5.12549H4.1687L3.65405 5.646L3.83081 6.37549H4.20386L4.46167 5.70557L4.76343 6.37549H5.07495L5.27319 5.646L4.6853 5.12549H4.97632L4.46265 4.75537L3.9314 5.12549ZM7.6814 3.87549H7.9187L7.40405 4.396L7.58081 5.12549H7.95386L8.21167 4.45557L8.51343 5.12549H8.82495L9.02319 4.396L8.4353 3.87549H8.72632L8.21265 3.50537L7.6814 3.87549ZM2.6814 3.87549H2.9187L2.40405 4.396L2.58081 5.12549H2.95386L3.21167 4.45557L3.51343 5.12549H3.82495L4.02319 4.396L3.4353 3.87549H3.72632L3.21265 3.50537L2.6814 3.87549ZM5.1814 3.87549H5.4187L4.90405 4.396L5.08081 5.12549H5.45386L5.71167 4.45557L6.01343 5.12549H6.32495L6.52319 4.396L5.9353 3.87549H6.22632L5.71265 3.50537L5.1814 3.87549ZM3.9314 2.62549H4.1687L3.65405 3.146L3.83081 3.87549H4.20386L4.46167 3.20557L4.76343 3.87549H5.07495L5.27319 3.146L4.6853 2.62549H4.97632L4.46265 2.25537L3.9314 2.62549ZM6.4314 2.62549H6.6687L6.15405 3.146L6.33081 3.87549H6.70386L6.96167 3.20557L7.26343 3.87549H7.57495L7.77319 3.146L7.1853 2.62549H7.47632L6.96265 2.25537L6.4314 2.62549Z" fill="#F7FCFF"/>
</g>
<rect width="20" height="15" fill="url(#paint0_linear_1292_131)" style="mix-blend-mode:overlay"/>
</g>
<defs>
<linearGradient id="paint0_linear_1292_131" x1="10" y1="0" x2="10" y2="15" gradientUnits="userSpaceOnUse">
<stop stop-color="white" stop-opacity="0.7"/>
<stop offset="1" stop-opacity="0.3"/>
</linearGradient>
<clipPath id="clip0_1292_131">
<rect width="20" height="15" rx="1.5" fill="white"/>
</clipPath>
<clipPath id="clip1_1292_131">
<rect width="20" height="15" fill="white"/>
</clipPath>
</defs>
</svg>
